<?xml version="1.0" standalone="no"?>
<!DOCTYPE svg PUBLIC "-//W3C//DTD SVG 20010904//EN"
 "http://www.w3.org/TR/2001/REC-SVG-20010904/DTD/svg10.dtd">
<svg version="1.0" xmlns="http://www.w3.org/2000/svg"
 width="596.000000pt" height="596.000000pt" viewBox="0 0 596.000000 596.000000"
 preserveAspectRatio="xMidYMid meet">

<g transform="translate(0.000000,596.000000) scale(0.100000,-0.100000)"
fill="#ffffff" stroke="none">
<path d="M3425 3703 c-259 -34 -434 -242 -466 -554 -25 -245 34 -484 150 -611
90 -98 192 -138 357 -138 116 0 211 21 322 70 l72 33 0 303 0 304 -210 0
c-237 0 -216 8 -204 -84 l7 -46 124 0 123 0 -2 -197 -3 -198 -60 -25 c-51 -21
-76 -24 -165 -24 -95 -1 -110 2 -156 26 -110 58 -163 164 -185 368 -24 231 20
432 117 539 59 66 123 94 225 99 104 5 167 -12 237 -66 l46 -35 43 49 c24 27
43 51 43 55 0 11 -89 70 -143 94 -74 34 -185 50 -272 38z"/>
<path d="M4160 3056 l0 -636 80 0 80 0 0 270 0 270 89 0 89 0 172 -270 171
-270 95 0 94 0 -180 270 c-99 148 -181 275 -182 281 -2 6 8 15 22 19 112 32
225 130 255 220 24 70 25 178 1 247 -34 101 -136 181 -271 213 -27 6 -155 14
-282 17 l-233 6 0 -637z m523 475 c26 -13 59 -38 72 -56 36 -46 51 -130 36
-201 -16 -82 -43 -118 -109 -151 -54 -26 -66 -28 -209 -31 l-153 -3 0 236 0
237 158 -4 c139 -3 162 -6 205 -27z"/>
<path d="M1340 3605 c0 -9 -9 -47 -21 -85 -18 -61 -19 -70 -5 -101 11 -26 15
-29 15 -13 1 11 10 47 21 80 13 37 19 71 15 91 -6 35 -25 55 -25 28z"/>
<path d="M1782 3495 c-86 -38 -55 -168 40 -168 36 0 88 50 88 84 0 20 -26 79
-36 79 -2 0 0 -9 6 -20 16 -31 -4 -62 -38 -58 -22 2 -28 9 -30 35 -3 28 1 33
23 39 20 5 23 9 13 15 -18 12 -27 11 -66 -6z"/>
<path d="M980 3321 c-14 -28 -12 -82 5 -131 8 -23 15 -54 15 -69 1 -25 1 -25
15 -7 20 26 19 59 -5 135 -12 36 -18 71 -16 78 8 20 -2 15 -14 -6z"/>
<path d="M1570 3299 c-174 -22 -308 -86 -426 -203 -90 -90 -156 -204 -158
-273 l-1 -37 645 -118 c355 -64 650 -117 657 -117 18 -1 27 86 15 160 -13 89
-50 167 -109 231 l-48 53 40 -29 c110 -79 169 -199 179 -366 4 -64 5 -65 35
-68 l31 -3 0 93 c0 115 -18 187 -72 291 -106 203 -339 354 -598 386 -93 12
-97 12 -190 0z"/>
<path d="M927 3186 c-12 -29 -8 -85 8 -123 8 -19 15 -50 15 -67 1 -29 1 -30
15 -12 20 27 19 58 -8 146 -17 52 -25 69 -30 56z"/>
<path d="M892 2448 l3 -23 800 -2 c453 -2 806 1 814 6 8 5 11 16 8 25 -6 14
-83 16 -817 16 l-811 0 3 -22z"/>
</g>
</svg>
